<svg xmlns="http://www.w3.org/2000/svg" viewBox="0 0 2783.52845 2990.71532">
  <defs>
    <style>
      .cls-1 {
        fill: #fff;
      }

      .cls-2 {
        fill: #fbfbfc;
      }
    </style>
  </defs>
  <title>background</title>
  <g id="Layer_2" data-name="Layer 2">
    <g id="background">
      <g>
        <rect class="cls-1" width="2783.52845" height="2990.71532"/>
        <polygon class="cls-2" points="0 1536.805 318.221 1052.478 1074.259 898.466 1418.907 582.123 1474.01 371.006 1996.113 322.884 2056.726 0 2248.309 0 2248.309 2339.507 0 2339.507 0 1536.805"/>
        <polygon class="cls-1" points="2139.755 0 2139.755 410.651 1506.939 1079.346 1344.426 1367.912 684.525 1642.604 366.886 1642.604 0 2136.495 0 2990.715 2783.528 2990.715 2783.528 0 2139.755 0"/>
        <polygon class="cls-2" points="0 2483.367 637.365 2077.112 1424.241 1933.874 1656.849 1393.573 2057.343 958.878 2457.887 466.738 2457.887 0 2783.528 0 2783.528 2990.715 0 2990.715 0 2483.367"/>
      </g>
    </g>
  </g>
</svg>
