<svg xmlns="http://www.w3.org/2000/svg" xmlns:xlink="http://www.w3.org/1999/xlink" viewBox="0 0 262.89 48.9"><defs><style>.cls-1{fill:url(#linear-gradient);}.cls-2{fill:#231f20;}</style><linearGradient id="linear-gradient" y1="24.45" x2="108.23" y2="24.45" gradientUnits="userSpaceOnUse"><stop offset="0" stop-color="#6fc6ac"/><stop offset="1" stop-color="#31bade"/></linearGradient></defs><title>Asset 4</title><g id="Layer_2" data-name="Layer 2"><g id="Layer_1-2" data-name="Layer 1"><path class="cls-1" d="M13.58,0h92.6a2,2,0,0,1,2,2.46l-.55,2.66C104.58,20,99.1,32.26,84.73,37.32L4.9,48.77a2,2,0,0,1-1.73-3.59l73.5-21.79A2.91,2.91,0,0,0,75.24,18H25.38A20.28,20.28,0,0,0,8.91,26.39L3.71,33.6A2,2,0,0,1,0,32.28L1.26,11.59A12.35,12.35,0,0,1,13.58,0Z"/><path class="cls-2" d="M123.33,6.61h5V36.93h-5Zm2.88,25.55h7.07a6.88,6.88,0,0,0,4.79-1.55,5.63,5.63,0,0,0,1.7-4.38V17.31a5.63,5.63,0,0,0-1.7-4.38,6.88,6.88,0,0,0-4.79-1.55h-7.07V6.61h6.94a14.44,14.44,0,0,1,6.35,1.27,9,9,0,0,1,4,3.71,11.78,11.78,0,0,1,1.38,5.88v8.6a11.81,11.81,0,0,1-1.36,5.8,9.12,9.12,0,0,1-4,3.75,14.24,14.24,0,0,1-6.42,1.31h-6.92Z"/><path class="cls-2" d="M153.2,36.12a7.56,7.56,0,0,1-3.31-3.31,11.08,11.08,0,0,1-1.15-5.26V25.11a12.59,12.59,0,0,1,1.09-5.49A7.77,7.77,0,0,1,153,16.16a10.1,10.1,0,0,1,5-1.19,8,8,0,0,1,4.75,1.39,8.58,8.58,0,0,1,3,4,17.37,17.37,0,0,1,1,6.34v1.42h-14.7V24.48h10.07l0-.23a6.18,6.18,0,0,0-1.27-3.52,3.54,3.54,0,0,0-2.86-1.25,4.4,4.4,0,0,0-3.48,1.4,5.89,5.89,0,0,0-1.23,4v2.75a5.12,5.12,0,0,0,1.33,3.79,5.11,5.11,0,0,0,3.76,1.32,6.68,6.68,0,0,0,2.43-.47A7.41,7.41,0,0,0,163,31l3.25,3a12,12,0,0,1-3.7,2.39,10.88,10.88,0,0,1-4.14.85A11.26,11.26,0,0,1,153.2,36.12Z"/><path class="cls-2" d="M182.38,15.28h5.07l-8.13,21.65h-3.63l-8.13-21.65h5.06L177.5,29.8Z"/><path class="cls-2" d="M188.38,15.28h10.17v4.36H188.38Zm3.5,20.31a6.33,6.33,0,0,1-1.27-4.29V9h5V30.61a2.09,2.09,0,0,0,.31,1.22,1.06,1.06,0,0,0,.92.43h1.73V37h-2.67A5.08,5.08,0,0,1,191.88,35.59Z"/><path class="cls-2" d="M206,36.14a7.38,7.38,0,0,1-3.13-3.22,11.23,11.23,0,0,1-1.07-5.1V24.29a11,11,0,0,1,1.07-5A7.31,7.31,0,0,1,206,16.07a11.62,11.62,0,0,1,9.87,0A7.31,7.31,0,0,1,219,19.26a11,11,0,0,1,1.07,5v3.59A11.06,11.06,0,0,1,219,32.94a7.38,7.38,0,0,1-3.13,3.2,11.53,11.53,0,0,1-9.87,0Zm8-4.87a4.9,4.9,0,0,0,1.09-3.39V24.29A4.81,4.81,0,0,0,214,20.94a4.54,4.54,0,0,0-6.13,0,4.81,4.81,0,0,0-1.09,3.35v3.59a4.89,4.89,0,0,0,1.08,3.39,4.53,4.53,0,0,0,6.14,0Z"/><path class="cls-2" d="M224.09,15.28h5V45.74h-5Zm6.82,21a5.69,5.69,0,0,1-2.13-2.75l.3-4.73a4.65,4.65,0,0,0,.43,2.1,3.13,3.13,0,0,0,1.28,1.32,4.08,4.08,0,0,0,2,.46,3.62,3.62,0,0,0,2.88-1.17,4.88,4.88,0,0,0,1-3.32V24.13a5.08,5.08,0,0,0-1-3.39,3.57,3.57,0,0,0-2.88-1.2,4.19,4.19,0,0,0-2,.45,3,3,0,0,0-1.28,1.32,4.73,4.73,0,0,0-.43,2.11l-.44-4.49A7.31,7.31,0,0,1,231.07,16a5.86,5.86,0,0,1,3.35-1A7.15,7.15,0,0,1,238.35,16a6.64,6.64,0,0,1,2.49,3.12,12.89,12.89,0,0,1,.85,5v4.08a12.45,12.45,0,0,1-.86,4.9,6.63,6.63,0,0,1-2.54,3.09,7.24,7.24,0,0,1-4,1.07A6,6,0,0,1,230.91,36.28Z"/><path class="cls-2" d="M250,36.88a15,15,0,0,1-3.28-1.07A12.71,12.71,0,0,1,244,34.08l3-3.76a13.49,13.49,0,0,0,3.37,1.77,9.85,9.85,0,0,0,3.34.61,7.69,7.69,0,0,0,3.46-.62,1.93,1.93,0,0,0,1.17-1.78,1.56,1.56,0,0,0-.58-1.34,3.39,3.39,0,0,0-1.47-.62c-.59-.11-1.42-.22-2.49-.31l-.57,0-.56-.07h-.33a20.21,20.21,0,0,1-3.74-.7,4.81,4.81,0,0,1-2.45-1.72,5.81,5.81,0,0,1-1-3.65,6.79,6.79,0,0,1,1-3.76,6.08,6.08,0,0,1,2.91-2.32,12.56,12.56,0,0,1,4.72-.78,16.66,16.66,0,0,1,3.25.32,15.93,15.93,0,0,1,3,.94,14.31,14.31,0,0,1,2.75,1.54l-3,3.63a13.54,13.54,0,0,0-3.07-1.4,10.22,10.22,0,0,0-3-.48,6.39,6.39,0,0,0-3,.56,1.81,1.81,0,0,0-1,1.67,1.23,1.23,0,0,0,.56,1.08,3.57,3.57,0,0,0,1.41.52c.56.09,1.38.18,2.45.28l.32,0,.33,0h.14l.17,0a21.47,21.47,0,0,1,4,.69,5.22,5.22,0,0,1,2.69,1.82,6.19,6.19,0,0,1,1.11,4,6.9,6.9,0,0,1-1,3.87,6.33,6.33,0,0,1-3.1,2.37,13.79,13.79,0,0,1-5,.81A18.32,18.32,0,0,1,250,36.88Z"/></g></g></svg>