<?xml version="1.0" encoding="utf-8"?>
<!-- Generator: Adobe Illustrator 24.0.2, SVG Export Plug-In . SVG Version: 6.00 Build 0)  -->
<svg version="1.1" id="Layer_1" xmlns="http://www.w3.org/2000/svg" xmlns:xlink="http://www.w3.org/1999/xlink" x="0px" y="0px"
	 viewBox="0 0 262.9 48.9" style="enable-background:new 0 0 262.9 48.9;" xml:space="preserve">
<style type="text/css">
	.st0{fill:#231F20;}
	.st1{fill:#0A0EFF;}
</style>
<title>Asset 6</title>
<g id="Layer_2_1_">
	<g id="Layer_1-2">
		<path class="st0" d="M123.3,6.6h5v30.3h-5V6.6z M126.2,32.2h7.1c1.7,0.1,3.4-0.4,4.8-1.5c1.2-1.1,1.8-2.7,1.7-4.4v-8.9
			c0.1-1.6-0.5-3.2-1.7-4.4c-1.3-1.1-3.1-1.7-4.8-1.6h-7.1V6.6h6.9c2.2-0.1,4.4,0.4,6.4,1.3c1.7,0.8,3.1,2.1,4,3.7
			c1,1.8,1.4,3.8,1.4,5.9v8.6c0,2-0.4,4-1.4,5.8c-0.9,1.6-2.3,2.9-4,3.8c-2,0.9-4.2,1.4-6.4,1.3h-6.9L126.2,32.2z"/>
		<path class="st0" d="M153.2,36.1c-1.4-0.7-2.6-1.9-3.3-3.3c-0.8-1.6-1.2-3.4-1.1-5.3v-2.4c-0.1-1.9,0.3-3.8,1.1-5.5
			c0.7-1.5,1.8-2.7,3.2-3.5c1.5-0.8,3.3-1.2,5-1.2c1.7-0.1,3.4,0.4,4.8,1.4c1.4,1,2.4,2.4,3,4c0.7,2,1.1,4.2,1,6.3v1.4h-14.7v-3.6
			h10.1v-0.2c0-1.3-0.5-2.5-1.3-3.5c-0.7-0.8-1.8-1.3-2.9-1.3c-1.3-0.1-2.6,0.4-3.5,1.4c-0.9,1.1-1.3,2.6-1.2,4v2.8
			c-0.1,1.4,0.4,2.8,1.3,3.8c1,0.9,2.4,1.4,3.8,1.3c0.8,0,1.7-0.2,2.4-0.5c0.8-0.3,1.5-0.7,2.2-1.3l3.3,3c-1.1,1-2.3,1.8-3.7,2.4
			c-1.3,0.6-2.7,0.8-4.1,0.8C156.6,37.3,154.8,36.9,153.2,36.1z"/>
		<path class="st0" d="M182.4,15.3h5.1l-8.1,21.6h-3.6l-8.1-21.6h5.1l4.9,14.5L182.4,15.3z"/>
		<path class="st0" d="M188.4,15.3h10.2v4.4h-10.2V15.3z M191.9,35.6c-0.9-1.2-1.4-2.8-1.3-4.3V9h5v21.6c0,0.4,0.1,0.9,0.3,1.2
			c0.2,0.3,0.6,0.5,0.9,0.4h1.7V37h-2.7C194.4,37.2,192.9,36.6,191.9,35.6z"/>
		<path class="st0" d="M206,36.1c-1.4-0.7-2.4-1.8-3.1-3.2c-0.8-1.6-1.1-3.3-1.1-5.1v-3.5c0-1.7,0.3-3.4,1.1-5
			c0.7-1.4,1.8-2.5,3.1-3.2c3.1-1.5,6.7-1.5,9.9,0c1.4,0.7,2.4,1.8,3.1,3.2c0.7,1.6,1.1,3.3,1.1,5v3.6c0.1,1.8-0.3,3.5-1.1,5.1
			c-0.7,1.4-1.8,2.5-3.1,3.2C212.7,37.6,209.1,37.6,206,36.1z M214,31.3c0.8-1,1.2-2.2,1.1-3.4v-3.6c0.1-1.2-0.3-2.4-1.1-3.4
			c-1.7-1.6-4.4-1.6-6.1,0c-0.8,0.9-1.2,2.1-1.1,3.4v3.6c-0.1,1.2,0.3,2.4,1.1,3.4C209.6,32.9,212.3,32.9,214,31.3z"/>
		<path class="st0" d="M224.1,15.3h5v30.5h-5V15.3z M230.9,36.3c-1-0.7-1.7-1.6-2.1-2.8l0.3-4.7c0,0.7,0.1,1.4,0.4,2.1
			c0.3,0.6,0.7,1,1.3,1.3c0.6,0.3,1.3,0.5,2,0.5c1.1,0.1,2.1-0.4,2.9-1.2c0.7-0.9,1.1-2.1,1-3.3v-4.1c0.1-1.2-0.3-2.4-1-3.4
			c-0.7-0.8-1.8-1.3-2.9-1.2c-0.7,0-1.4,0.1-2,0.5c-0.6,0.3-1,0.8-1.3,1.3c-0.3,0.7-0.5,1.4-0.4,2.1l-0.4-4.5
			c0.5-1.2,1.4-2.2,2.4-2.9c1-0.7,2.2-1,3.4-1c1.4-0.1,2.7,0.3,3.9,1c1.1,0.8,2,1.8,2.5,3.1c0.6,1.6,0.9,3.3,0.9,5v4.1
			c0,1.7-0.2,3.3-0.9,4.9c-0.5,1.3-1.4,2.3-2.5,3.1c-1.2,0.7-2.6,1.1-4,1.1C233.1,37.3,231.9,36.9,230.9,36.3z"/>
		<path class="st0" d="M250,36.9c-1.1-0.2-2.2-0.6-3.3-1.1c-1-0.5-1.9-1-2.7-1.7l3-3.8c1,0.7,2.2,1.3,3.4,1.8
			c1.1,0.4,2.2,0.6,3.3,0.6c1.2,0.1,2.4-0.1,3.5-0.6c0.7-0.3,1.2-1,1.2-1.8c0-0.5-0.2-1-0.6-1.3c-0.4-0.3-0.9-0.5-1.5-0.6
			c-0.6-0.1-1.4-0.2-2.5-0.3h-0.6l-0.6-0.1h-0.3c-1.3-0.1-2.5-0.3-3.7-0.7c-1-0.3-1.8-0.9-2.4-1.7c-0.7-1.1-1.1-2.4-1-3.6
			c0-1.3,0.3-2.6,1-3.8c0.7-1.1,1.7-1.9,2.9-2.3c1.5-0.6,3.1-0.8,4.7-0.8c1.1,0,2.2,0.1,3.3,0.3c1,0.2,2,0.5,3,0.9
			c1,0.4,1.9,0.9,2.8,1.5l-3,3.6c-1-0.6-2-1.1-3.1-1.4c-1-0.3-2-0.5-3-0.5c-1-0.1-2.1,0.1-3,0.6c-0.6,0.3-1,1-1,1.7
			c0,0.4,0.2,0.8,0.6,1.1c0.4,0.3,0.9,0.5,1.4,0.5c0.6,0.1,1.4,0.2,2.4,0.3h0.3h0.3h0.1h0.2c1.4,0.1,2.7,0.3,4,0.7
			c1.1,0.3,2,0.9,2.7,1.8c0.8,1.2,1.2,2.6,1.1,4c0.1,1.4-0.3,2.7-1,3.9c-0.8,1.1-1.8,1.9-3.1,2.4c-1.6,0.6-3.3,0.9-5,0.8
			C252.5,37.3,251.2,37.1,250,36.9z"/>
	</g>
</g>
<path class="st1" d="M14.9,0.7h89.7c1.3,0,2.2,1.2,1.9,2.4l-0.5,2.6c-3,14.5-8.3,26.4-22.2,31.3L6.5,48.1c-2.2,0.8-3.6-2.3-1.7-3.5
	l71.2-21.2c2.5-1.4,1.5-5.3-1.4-5.3H26.3c-6.3,0-12.3,3-15.9,8.2l-5,7C4.1,35,1.6,34,1.7,32.1L2.9,12C3.3,5.6,8.5,0.7,14.9,0.7z"/>
</svg>
