<?xml version="1.0" encoding="utf-8"?>
<!-- Generator: Adobe Illustrator 24.0.2, SVG Export Plug-In . SVG Version: 6.00 Build 0)  -->
<svg version="1.1" id="Layer_1" xmlns="http://www.w3.org/2000/svg" xmlns:xlink="http://www.w3.org/1999/xlink" x="0px" y="0px"
	 viewBox="0 0 247.8 42.4" style="enable-background:new 0 0 247.8 42.4;" xml:space="preserve">
<style type="text/css">
	.st0{fill:#231F20;}
	.st1{fill:#FFFFFF;stroke:#0A0EFF;stroke-width:12;stroke-miterlimit:10;}
</style>
<title>devtops</title>
<g id="Layer_2_1_">
	<g id="Layer_1-2">
		<path class="st0" d="M108.2,3.3h5v30.3h-5V3.3z M111.1,28.9h7.1c1.7,0.1,3.4-0.4,4.8-1.5c1.2-1.1,1.8-2.7,1.7-4.4V14
			c0.1-1.6-0.5-3.2-1.7-4.4c-1.3-1.1-3.1-1.7-4.8-1.6h-7.1V3.3h6.9c2.2-0.1,4.4,0.4,6.4,1.3c1.7,0.8,3.1,2.1,4,3.7
			c1,1.8,1.4,3.8,1.4,5.9v8.6c0,2-0.4,4-1.4,5.8c-0.9,1.6-2.3,2.9-4,3.8c-2,0.9-4.2,1.4-6.4,1.3h-6.9L111.1,28.9z"/>
		<path class="st0" d="M138.1,32.8c-1.4-0.7-2.6-1.9-3.3-3.3c-0.8-1.6-1.2-3.4-1.1-5.3v-2.4c-0.1-1.9,0.3-3.8,1.1-5.5
			c0.7-1.5,1.8-2.7,3.2-3.5c1.5-0.8,3.3-1.2,5-1.2c1.7-0.1,3.4,0.4,4.8,1.4c1.4,1,2.4,2.4,3,4c0.7,2,1.1,4.2,1,6.3v1.4h-14.7v-3.7
			H147V21c0-1.3-0.5-2.5-1.3-3.5c-0.7-0.8-1.8-1.3-2.8-1.3c-1.3-0.1-2.6,0.4-3.5,1.4c-0.9,1.1-1.3,2.6-1.2,4v2.8
			c-0.1,1.4,0.4,2.8,1.3,3.8c1,0.9,2.4,1.4,3.8,1.3c0.8,0,1.7-0.2,2.4-0.5c0.8-0.3,1.5-0.7,2.2-1.3l3.3,3c-1.1,1-2.3,1.8-3.7,2.4
			c-1.3,0.6-2.7,0.8-4.1,0.8C141.5,34,139.7,33.6,138.1,32.8z"/>
		<path class="st0" d="M167.3,12h5.1l-8.1,21.7h-3.6L152.5,12h5.1l4.9,14.5L167.3,12z"/>
		<path class="st0" d="M173.3,12h10.2v4.4h-10.2V12z M176.8,32.3c-0.9-1.2-1.4-2.8-1.3-4.3V5.7h5v21.6c0,0.4,0.1,0.9,0.3,1.2
			c0.2,0.3,0.6,0.5,0.9,0.4h1.7v4.7h-2.7C179.3,33.8,177.8,33.3,176.8,32.3z"/>
		<path class="st0" d="M190.9,32.8c-1.4-0.7-2.4-1.8-3.1-3.2c-0.8-1.6-1.1-3.3-1.1-5.1V21c0-1.7,0.3-3.4,1.1-5
			c0.7-1.4,1.8-2.5,3.1-3.2c3.1-1.5,6.7-1.5,9.9,0c1.4,0.7,2.4,1.8,3.1,3.2c0.7,1.6,1.1,3.3,1.1,5v3.6c0.1,1.8-0.3,3.5-1.1,5.1
			c-0.7,1.4-1.8,2.5-3.1,3.2C197.6,34.3,194,34.3,190.9,32.8z M198.9,28c0.8-1,1.2-2.2,1.1-3.4V21c0.1-1.2-0.3-2.4-1.1-3.4
			c-1.7-1.6-4.4-1.6-6.1,0c-0.8,0.9-1.2,2.1-1.1,3.4v3.6c-0.1,1.2,0.3,2.4,1.1,3.4C194.5,29.6,197.2,29.6,198.9,28z"/>
		<path class="st0" d="M209,12h5v30.5h-5V12z M215.8,33c-1-0.7-1.7-1.6-2.1-2.8l0.3-4.7c0,0.7,0.1,1.4,0.4,2.1
			c0.3,0.6,0.7,1,1.3,1.3c0.6,0.3,1.3,0.5,2,0.5c1.1,0.1,2.1-0.4,2.9-1.2c0.7-0.9,1.1-2.1,1-3.3v-4.1c0.1-1.2-0.3-2.4-1-3.4
			c-0.7-0.8-1.8-1.3-2.9-1.2c-0.7,0-1.4,0.1-2,0.5c-0.6,0.3-1,0.8-1.3,1.3c-0.3,0.7-0.4,1.4-0.4,2.1l-0.4-4.5
			c0.5-1.2,1.4-2.2,2.4-2.9c1-0.7,2.2-1,3.4-1c1.4-0.1,2.7,0.3,3.9,1c1.1,0.8,2,1.8,2.5,3.1c0.6,1.6,0.9,3.3,0.9,5v4.1
			c0,1.7-0.2,3.3-0.9,4.9c-0.5,1.3-1.4,2.3-2.5,3.1c-1.2,0.7-2.6,1.1-4,1.1C218,34,216.8,33.6,215.8,33z"/>
		<path class="st0" d="M234.9,33.6c-1.1-0.2-2.2-0.6-3.3-1.1c-1-0.5-1.9-1-2.7-1.7l3-3.8c1,0.7,2.2,1.3,3.4,1.8
			c1.1,0.4,2.2,0.6,3.3,0.6c1.2,0.1,2.4-0.2,3.5-0.6c0.7-0.3,1.2-1,1.2-1.8c0-0.5-0.2-1-0.6-1.3c-0.4-0.3-0.9-0.5-1.5-0.6
			c-0.6-0.1-1.4-0.2-2.5-0.3h-0.6l-0.6-0.1h-0.3c-1.3-0.1-2.5-0.4-3.7-0.7c-1-0.3-1.8-0.9-2.4-1.7c-0.7-1.1-1.1-2.4-1-3.6
			c0-1.3,0.3-2.6,1-3.8c0.7-1.1,1.7-1.9,2.9-2.3c1.5-0.6,3.1-0.8,4.7-0.8c1.1,0,2.2,0.1,3.3,0.3c1,0.2,2,0.5,3,0.9
			c1,0.4,1.9,0.9,2.7,1.5l-3,3.6c-1-0.6-2-1.1-3.1-1.4c-1-0.3-2-0.5-3-0.5c-1-0.1-2.1,0.1-3,0.6c-0.6,0.3-1,1-1,1.7
			c0,0.4,0.2,0.8,0.6,1.1c0.4,0.3,0.9,0.4,1.4,0.5c0.6,0.1,1.4,0.2,2.4,0.3h1c1.4,0.1,2.7,0.3,4,0.7c1.1,0.3,2,0.9,2.7,1.8
			c0.8,1.2,1.2,2.6,1.1,4c0.1,1.4-0.3,2.7-1,3.9c-0.8,1.1-1.8,1.9-3.1,2.4c-1.6,0.6-3.3,0.9-5,0.8C237.4,34,236.2,33.8,234.9,33.6z"
			/>
	</g>
</g>
<polyline class="st1" points="19.4,16.5 22.7,9.1 86.4,9.1 75.9,32.4 12.3,32.4 17.2,21.7 "/>
</svg>
